<svg xmlns="http://www.w3.org/2000/svg" viewBox="0 0 100 100">
  <!-- Pineapple crown (spiky leaves) -->
  <path d="M50 5 L45 25 L55 25 Z" fill="#4CAF50"/>
  <path d="M40 8 L38 28 L48 25 Z" fill="#66BB6A"/>
  <path d="M60 8 L62 28 L52 25 Z" fill="#66BB6A"/>
  <path d="M32 15 L33 30 L43 26 Z" fill="#43A047"/>
  <path d="M68 15 L67 30 L57 26 Z" fill="#43A047"/>
  <path d="M25 22 L30 35 L40 28 Z" fill="#2E7D32"/>
  <path d="M75 22 L70 35 L60 28 Z" fill="#2E7D32"/>

  <!-- Pineapple body -->
  <ellipse cx="50" cy="62" rx="32" ry="38" fill="#FFB300"/>
  <ellipse cx="50" cy="62" rx="32" ry="38" fill="url(#pineGrad)"/>

  <!-- Diamond pattern -->
  <path d="M25 45 L35 55 L25 65 L15 55 Z" stroke="#F57F17" stroke-width="1" fill="none" opacity="0.5"/>
  <path d="M45 35 L55 45 L45 55 L35 45 Z" stroke="#F57F17" stroke-width="1" fill="none" opacity="0.5"/>
  <path d="M65 45 L75 55 L65 65 L55 55 Z" stroke="#F57F17" stroke-width="1" fill="none" opacity="0.5"/>
  <path d="M35 55 L45 65 L35 75 L25 65 Z" stroke="#F57F17" stroke-width="1" fill="none" opacity="0.5"/>
  <path d="M55 55 L65 65 L55 75 L45 65 Z" stroke="#F57F17" stroke-width="1" fill="none" opacity="0.5"/>
  <path d="M45 75 L55 85 L45 95 L35 85 Z" stroke="#F57F17" stroke-width="1" fill="none" opacity="0.5"/>

  <!-- Face - Cool sunglasses -->
  <rect x="28" cy="52" y="50" width="18" height="12" rx="3" fill="#2C1810"/>
  <rect x="54" cy="52" y="50" width="18" height="12" rx="3" fill="#2C1810"/>
  <rect x="46" y="54" width="8" height="3" fill="#2C1810"/>
  <rect x="30" y="52" width="14" height="8" rx="2" fill="#424242"/>
  <rect x="56" y="52" width="14" height="8" rx="2" fill="#424242"/>
  <rect x="31" y="53" width="5" height="3" rx="1" fill="white" opacity="0.3"/>
  <rect x="57" y="53" width="5" height="3" rx="1" fill="white" opacity="0.3"/>

  <!-- Nose -->
  <ellipse cx="50" cy="68" rx="3" ry="4" fill="#FFA000"/>

  <!-- Cool smirk -->
  <path d="M38 80 Q50 88 62 78" stroke="#E65100" stroke-width="3" fill="none" stroke-linecap="round"/>

  <!-- Cheeks -->
  <circle cx="28" cy="72" r="5" fill="#FFCC80" opacity="0.5"/>
  <circle cx="72" cy="72" r="5" fill="#FFCC80" opacity="0.5"/>

  <defs>
    <linearGradient id="pineGrad" x1="0%" y1="0%" x2="100%" y2="100%">
      <stop offset="0%" stop-color="#FFCA28"/>
      <stop offset="100%" stop-color="#FF8F00"/>
    </linearGradient>
  </defs>
</svg>
